<svg width="189" height="68" viewBox="0 0 189 68" fill="none" xmlns="http://www.w3.org/2000/svg">
<rect x="2" y="2" width="185" height="64" stroke="#252424" stroke-width="4"/>
<path d="M46.0294 44.0929C44.088 44.0929 42.436 43.6916 41.0734 42.8889C39.7294 42.0676 38.7027 40.9009 37.9934 39.3889C37.284 37.8769 36.9294 36.0756 36.9294 33.9849C36.9294 31.8942 37.284 30.1022 37.9934 28.6089C38.7027 27.0969 39.7294 25.9396 41.0734 25.1369C42.436 24.3156 44.088 23.9049 46.0294 23.9049C47.448 23.9049 48.708 24.1289 49.8094 24.5769C50.9107 25.0062 51.872 25.6502 52.6934 26.5089L51.9654 27.9089C51.0507 27.0689 50.136 26.4622 49.2214 26.0889C48.3067 25.6969 47.2427 25.5009 46.0294 25.5009C43.6587 25.5009 41.8574 26.2476 40.6254 27.7409C39.3934 29.2156 38.7774 31.2969 38.7774 33.9849C38.7774 36.6729 39.3934 38.7636 40.6254 40.2569C41.8574 41.7502 43.6587 42.4969 46.0294 42.4969C47.2427 42.4969 48.3067 42.3102 49.2214 41.9369C50.136 41.5449 51.0507 40.9289 51.9654 40.0889L52.6934 41.4889C51.872 42.3476 50.9014 43.0009 49.7814 43.4489C48.68 43.8782 47.4294 44.0929 46.0294 44.0929ZM56.574 43.8689V23.2609H58.282V43.8689H56.574ZM62.9451 43.8689V29.8409H64.6531V43.8689H62.9451ZM62.6651 26.3969V24.2689H64.9611V26.3969H62.6651ZM79.5082 49.9169V40.3689H79.8162C79.5175 41.5262 78.8922 42.4409 77.9402 43.1129C77.0069 43.7662 75.9055 44.0929 74.6362 44.0929C73.3669 44.0929 72.2655 43.8036 71.3322 43.2249C70.3989 42.6462 69.6802 41.8156 69.1762 40.7329C68.6722 39.6502 68.4202 38.3529 68.4202 36.8409C68.4202 35.3289 68.6722 34.0409 69.1762 32.9769C69.6989 31.8942 70.4269 31.0636 71.3602 30.4849C72.2935 29.8876 73.3855 29.5889 74.6362 29.5889C75.9242 29.5889 77.0349 29.9249 77.9682 30.5969C78.9202 31.2689 79.5455 32.1836 79.8442 33.3409H79.5082L79.7882 29.8409H81.4402C81.3842 30.3822 81.3282 30.9142 81.2722 31.4369C81.2349 31.9596 81.2162 32.4729 81.2162 32.9769V49.9169H79.5082ZM74.8602 42.6369C76.2975 42.6369 77.4362 42.1422 78.2762 41.1529C79.1162 40.1636 79.5362 38.7262 79.5362 36.8409C79.5362 34.9556 79.1162 33.5182 78.2762 32.5289C77.4362 31.5396 76.2975 31.0449 74.8602 31.0449C73.4229 31.0449 72.2749 31.5396 71.4162 32.5289C70.5762 33.5182 70.1562 34.9556 70.1562 36.8409C70.1562 38.7262 70.5762 40.1636 71.4162 41.1529C72.2749 42.1422 73.4229 42.6369 74.8602 42.6369ZM90.7872 44.0929C89.1445 44.0929 87.8938 43.6542 87.0352 42.7769C86.1952 41.8809 85.7752 40.5089 85.7752 38.6609V29.8409H87.4832V38.5489C87.4832 39.9676 87.7725 41.0036 88.3512 41.6569C88.9298 42.3102 89.8165 42.6369 91.0112 42.6369C92.3365 42.6369 93.4005 42.2076 94.2032 41.3489C95.0245 40.4716 95.4352 39.3142 95.4352 37.8769V29.8409H97.1432V43.8689H95.4632V40.5649H95.8272C95.4352 41.7036 94.7912 42.5809 93.8952 43.1969C93.0178 43.7942 91.9818 44.0929 90.7872 44.0929ZM107.821 44.0929C105.693 44.0929 104.003 43.4582 102.753 42.1889C101.521 40.9196 100.905 39.1556 100.905 36.8969C100.905 35.4036 101.175 34.1156 101.717 33.0329C102.277 31.9502 103.051 31.1102 104.041 30.5129C105.03 29.8969 106.178 29.5889 107.485 29.5889C108.735 29.5889 109.79 29.8596 110.649 30.4009C111.507 30.9236 112.17 31.6796 112.637 32.6689C113.103 33.6396 113.337 34.7969 113.337 36.1409V36.9249H102.137V35.6929H112.273L111.797 36.0569C111.797 34.4702 111.433 33.2289 110.705 32.3329C109.977 31.4182 108.894 30.9609 107.457 30.9609C105.926 30.9609 104.731 31.4929 103.873 32.5569C103.014 33.6022 102.585 34.9929 102.585 36.7289V36.9249C102.585 38.7916 103.042 40.2102 103.957 41.1809C104.89 42.1516 106.187 42.6369 107.849 42.6369C108.707 42.6369 109.51 42.5062 110.257 42.2449C111.003 41.9836 111.722 41.5356 112.413 40.9009L113.113 42.1609C112.515 42.7769 111.741 43.2529 110.789 43.5889C109.837 43.9249 108.847 44.0929 107.821 44.0929ZM116.976 43.8689V33.1169C116.976 32.5756 116.957 32.0342 116.92 31.4929C116.901 30.9329 116.854 30.3822 116.78 29.8409H118.46L118.684 33.0609L118.348 33.0889C118.534 32.3049 118.87 31.6609 119.356 31.1569C119.841 30.6342 120.401 30.2422 121.036 29.9809C121.67 29.7196 122.324 29.5889 122.996 29.5889C123.238 29.5889 123.462 29.6076 123.668 29.6449C123.892 29.6636 124.097 29.7009 124.284 29.7569L124.228 31.2969C124.004 31.2222 123.78 31.1756 123.556 31.1569C123.332 31.1382 123.089 31.1289 122.828 31.1289C121.988 31.1289 121.25 31.3342 120.616 31.7449C120 32.1556 119.524 32.6782 119.188 33.3129C118.852 33.9476 118.684 34.5916 118.684 35.2449V43.8689H116.976ZM133.902 43.8689V29.8409H135.61V43.8689H133.902ZM133.622 26.3969V24.2689H135.918V26.3969H133.622ZM145.929 44.0929C144.604 44.0929 143.447 43.8036 142.457 43.2249C141.468 42.6276 140.703 41.7782 140.161 40.6769C139.639 39.5756 139.377 38.2689 139.377 36.7569C139.377 35.2449 139.648 33.9569 140.189 32.8929C140.731 31.8102 141.487 30.9889 142.457 30.4289C143.447 29.8689 144.604 29.5889 145.929 29.5889C146.825 29.5889 147.684 29.7569 148.505 30.0929C149.345 30.4289 150.036 30.8956 150.577 31.4929L149.877 32.7529C149.299 32.1742 148.673 31.7542 148.001 31.4929C147.329 31.2129 146.657 31.0729 145.985 31.0729C144.455 31.0729 143.26 31.5582 142.401 32.5289C141.543 33.4996 141.113 34.9182 141.113 36.7849C141.113 38.6516 141.543 40.0982 142.401 41.1249C143.26 42.1329 144.455 42.6369 145.985 42.6369C146.62 42.6369 147.273 42.5062 147.945 42.2449C148.636 41.9836 149.28 41.5542 149.877 40.9569L150.577 42.2169C150.017 42.8142 149.308 43.2809 148.449 43.6169C147.609 43.9342 146.769 44.0929 145.929 44.0929ZM154.027 43.8689V29.8409H155.735V43.8689H154.027ZM153.747 26.3969V24.2689H156.043V26.3969H153.747Z" fill="#252424"/>
</svg>
