<svg width="200" height="69" viewBox="0 0 200 69" fill="none" xmlns="http://www.w3.org/2000/svg">
<rect x="2" y="2" width="196" height="65" stroke="white" stroke-width="4"/>
<path d="M50.736 47L42.196 27.26H44.072L51.996 45.768H51.24L59.22 27.26H61.04L52.444 47H50.736ZM67.5047 47.224C66.1794 47.224 65.0314 46.9347 64.0607 46.356C63.1087 45.7773 62.3714 44.9467 61.8487 43.864C61.3261 42.7813 61.0647 41.484 61.0647 39.972C61.0647 38.4787 61.3261 37.1907 61.8487 36.108C62.3714 35.0253 63.1087 34.1947 64.0607 33.616C65.0314 33.0187 66.1794 32.72 67.5047 32.72C68.8114 32.72 69.9407 33.0187 70.8927 33.616C71.8634 34.1947 72.6101 35.0253 73.1327 36.108C73.6741 37.1907 73.9447 38.4787 73.9447 39.972C73.9447 41.484 73.6741 42.7813 73.1327 43.864C72.6101 44.9467 71.8634 45.7773 70.8927 46.356C69.9407 46.9347 68.8114 47.224 67.5047 47.224ZM67.5047 45.768C68.9234 45.768 70.0621 45.2733 70.9207 44.284C71.7794 43.2947 72.2087 41.8573 72.2087 39.972C72.2087 38.0867 71.7794 36.6493 70.9207 35.66C70.0621 34.6707 68.9234 34.176 67.5047 34.176C66.0674 34.176 64.9194 34.6707 64.0607 35.66C63.2207 36.6493 62.8007 38.0867 62.8007 39.972C62.8007 41.8573 63.2207 43.2947 64.0607 44.284C64.9194 45.2733 66.0674 45.768 67.5047 45.768ZM77.6834 47V32.972H79.3914V47H77.6834ZM77.4034 29.528V27.4H79.6994V29.528H77.4034ZM84.0265 47V36.248C84.0265 35.7067 84.0078 35.1653 83.9705 34.624C83.9518 34.064 83.9051 33.5133 83.8305 32.972H85.5105L85.7345 36.192L85.3985 36.22C85.5851 35.436 85.9211 34.792 86.4065 34.288C86.8918 33.7653 87.4518 33.3733 88.0865 33.112C88.7211 32.8507 89.3745 32.72 90.0465 32.72C90.2891 32.72 90.5131 32.7387 90.7185 32.776C90.9425 32.7947 91.1478 32.832 91.3345 32.888L91.2785 34.428C91.0545 34.3533 90.8305 34.3067 90.6065 34.288C90.3825 34.2693 90.1398 34.26 89.8785 34.26C89.0385 34.26 88.3011 34.4653 87.6665 34.876C87.0505 35.2867 86.5745 35.8093 86.2385 36.444C85.9025 37.0787 85.7345 37.7227 85.7345 38.376V47H84.0265ZM100.953 53.048V36.108C100.953 35.604 100.934 35.0907 100.897 34.568C100.86 34.0453 100.804 33.5133 100.729 32.972H102.409L102.689 36.472H102.353C102.67 35.3147 103.286 34.4 104.201 33.728C105.116 33.056 106.226 32.72 107.533 32.72C108.802 32.72 109.894 33.0187 110.809 33.616C111.742 34.1947 112.47 35.0253 112.993 36.108C113.516 37.172 113.777 38.46 113.777 39.972C113.777 41.484 113.516 42.7813 112.993 43.864C112.489 44.9467 111.77 45.7773 110.837 46.356C109.904 46.9347 108.802 47.224 107.533 47.224C106.245 47.224 105.134 46.8973 104.201 46.244C103.286 45.572 102.67 44.6573 102.353 43.5H102.661V53.048H100.953ZM107.309 45.768C108.746 45.768 109.894 45.2733 110.753 44.284C111.612 43.2947 112.041 41.8573 112.041 39.972C112.041 38.0867 111.612 36.6493 110.753 35.66C109.894 34.6707 108.746 34.176 107.309 34.176C105.89 34.176 104.752 34.6707 103.893 35.66C103.053 36.6493 102.633 38.0867 102.633 39.972C102.633 41.8573 103.053 43.2947 103.893 44.284C104.752 45.2733 105.89 45.768 107.309 45.768ZM117.496 47V26.392H119.204V47H117.496ZM128.795 47.224C127.152 47.224 125.902 46.7853 125.043 45.908C124.203 45.012 123.783 43.64 123.783 41.792V32.972H125.491V41.68C125.491 43.0987 125.78 44.1347 126.359 44.788C126.938 45.4413 127.824 45.768 129.019 45.768C130.344 45.768 131.408 45.3387 132.211 44.48C133.032 43.6027 133.443 42.4453 133.443 41.008V32.972H135.151V47H133.471V43.696H133.835C133.443 44.8347 132.799 45.712 131.903 46.328C131.026 46.9253 129.99 47.224 128.795 47.224ZM144.344 47.224C143.262 47.224 142.244 47.0653 141.292 46.748C140.359 46.4307 139.584 45.992 138.968 45.432L139.64 44.172C140.331 44.732 141.078 45.152 141.88 45.432C142.683 45.6933 143.523 45.824 144.4 45.824C145.595 45.824 146.5 45.6 147.116 45.152C147.732 44.704 148.04 44.0973 148.04 43.332C148.04 42.7347 147.844 42.2493 147.452 41.876C147.06 41.5027 146.407 41.2227 145.492 41.036L142.972 40.504C141.778 40.224 140.882 39.776 140.284 39.16C139.706 38.544 139.416 37.7693 139.416 36.836C139.416 36.0333 139.622 35.324 140.032 34.708C140.462 34.092 141.068 33.6067 141.852 33.252C142.636 32.8973 143.56 32.72 144.624 32.72C145.632 32.72 146.556 32.888 147.396 33.224C148.255 33.5413 148.955 33.9987 149.496 34.596L148.768 35.828C148.208 35.268 147.574 34.848 146.864 34.568C146.174 34.288 145.436 34.148 144.652 34.148C143.495 34.148 142.618 34.3907 142.02 34.876C141.423 35.3427 141.124 35.968 141.124 36.752C141.124 37.3493 141.311 37.844 141.684 38.236C142.058 38.6093 142.646 38.8893 143.448 39.076L145.968 39.636C147.238 39.916 148.18 40.3453 148.796 40.924C149.412 41.5027 149.72 42.268 149.72 43.22C149.72 44.0413 149.496 44.76 149.048 45.376C148.6 45.9733 147.975 46.4307 147.172 46.748C146.37 47.0653 145.427 47.224 144.344 47.224Z" fill="white"/>
</svg>
